<svg width="42" height="42" viewBox="0 0 42 42" fill="none" xmlns="http://www.w3.org/2000/svg">
<path d="M3 37V5H35V37H3Z" fill="#FFD600"/>
<path d="M25.8456 28.8286C26.4511 29.8121 27.1091 30.7545 28.503 30.7545C29.6738 30.7545 30.288 30.1726 30.288 29.3676C30.288 28.4043 29.6528 28.0621 28.3648 27.5013L27.6586 27.2003C25.6208 26.3358 24.2654 25.2525 24.2654 22.9644C24.2654 20.8556 25.8798 19.2509 28.4024 19.2509C30.1988 19.2509 31.4894 19.873 32.4204 21.5022L30.2206 22.9084C29.7368 22.0439 29.2135 21.7035 28.4024 21.7035C27.5746 21.7035 27.0505 22.2259 27.0505 22.9084C27.0505 23.7519 27.5755 24.0931 28.7874 24.6155L29.4935 24.9165C31.8954 25.9394 33.2499 26.9841 33.2499 29.3326C33.2499 31.8631 31.2514 33.25 28.5686 33.25C25.9445 33.25 24.4544 31.9331 23.6249 30.303L25.8456 28.8286ZM15.7079 28.9004C16.1506 29.6931 16.8235 30.303 17.7913 30.303C18.717 30.303 19.2499 29.9373 19.2499 28.5154V19.25H22.1663V28.9634C22.1663 31.9095 20.4574 33.25 17.9619 33.25C15.707 33.25 14.0795 31.7222 13.4163 30.303L15.7079 28.9004Z" fill="#000001"/>
</svg>
