<svg width="38" height="36" viewBox="0 0 38 36" fill="none" xmlns="http://www.w3.org/2000/svg">
<path d="M19 22C21.2091 22 23 20.2091 23 18C23 15.7909 21.2091 14 19 14C16.7909 14 15 15.7909 15 18C15 20.2091 16.7909 22 19 22Z" fill="#61DAFB"/>
<path d="M19 31.5248C21.725 34.3366 24.4126 36 26.5776 36C27.2868 36 27.9587 35.8416 28.5187 35.4851C30.4597 34.297 31.169 31.3267 30.4971 27.0891C30.3851 26.3366 30.2358 25.5842 30.0491 24.7921C30.7957 24.5545 31.4676 24.3168 32.1395 24.0792C35.9096 22.5347 38 20.396 38 18.0594C38 15.6832 35.9096 13.5446 32.1395 12.0396C31.4676 11.7624 30.7957 11.5248 30.0491 11.3267C30.2358 10.5347 30.3851 9.78218 30.4971 9.0297C31.1316 4.71287 30.4224 1.70297 28.4813 0.514852C27.9214 0.158416 27.2495 0 26.5403 0C24.4126 0 21.6876 1.66337 18.9627 4.47525C16.2751 1.66337 13.5874 0 11.4224 0C10.7132 0 10.0413 0.158416 9.48134 0.514852C7.54028 1.70297 6.83104 4.67327 7.50295 8.91089C7.61493 9.66337 7.76424 10.4158 7.95088 11.2079C7.20432 11.4455 6.53242 11.6832 5.86051 11.9208C2.09037 13.4653 0 15.604 0 17.9406C0 20.3168 2.09037 22.4554 5.86051 23.9604C6.53242 24.2376 7.20432 24.4752 7.95088 24.6733C7.76424 25.4653 7.61493 26.2178 7.50295 26.9703C6.86837 31.2079 7.5776 34.2178 9.48134 35.3663C10.0413 35.7228 10.7132 35.8812 11.4224 35.8812C13.5874 35.9604 16.275 34.297 19 31.5248ZM16.9096 26.1782C17.5815 26.2178 18.2908 26.2178 19 26.2178C19.7092 26.2178 20.4185 26.2178 21.0904 26.1782C20.4185 27.1287 19.7092 28 19 28.8317C18.2908 28 17.5815 27.1287 16.9096 26.1782ZM12.2809 22.099C12.6542 22.7723 12.9902 23.4059 13.4008 24.0396C12.2436 23.8812 11.1611 23.6832 10.1159 23.4455C10.4519 22.3762 10.8251 21.2673 11.2731 20.1584C11.5717 20.7921 11.9077 21.4653 12.2809 22.099ZM10.1159 12.5545C11.1611 12.3168 12.2436 12.1188 13.4008 11.9604C13.0275 12.5941 12.6542 13.2277 12.2809 13.901C11.9077 14.5743 11.5717 15.2079 11.2731 15.8812C10.7878 14.7327 10.4145 13.6238 10.1159 12.5545ZM12.169 17.9802C12.6542 16.9109 13.1768 15.8416 13.7741 14.7723C14.334 13.7426 14.9686 12.7129 15.6031 11.6832C16.723 11.604 17.8428 11.5644 19 11.5644C20.1945 11.5644 21.3143 11.604 22.3969 11.6832C23.0688 12.7129 23.666 13.7426 24.2259 14.7723C24.8232 15.8416 25.3458 16.9109 25.831 17.9802C25.3458 19.0495 24.8232 20.1188 24.2259 21.1881C23.666 22.2178 23.0314 23.2475 22.3969 24.2772C21.277 24.3564 20.1572 24.396 19 24.396C17.8055 24.396 16.6857 24.3564 15.6031 24.2772C14.9312 23.2475 14.334 22.2178 13.7741 21.1881C13.1768 20.1188 12.6542 19.0495 12.169 17.9802ZM26.7642 15.8416L25.7564 13.8614C25.3831 13.1881 25.0472 12.5545 24.6365 11.9208C25.7937 12.0792 26.8762 12.2772 27.9214 12.5149C27.5855 13.6238 27.2122 14.7327 26.7642 15.8416ZM26.7642 20.1188C27.2122 21.2277 27.5855 22.3366 27.9214 23.4059C26.8762 23.6436 25.7937 23.8416 24.6365 24C25.0098 23.3663 25.3831 22.7327 25.7564 22.0594C26.0923 21.4653 26.4283 20.7921 26.7642 20.1188ZM27.6228 33.8614C27.3242 34.0594 26.9509 34.1386 26.5403 34.1386C24.7112 34.1386 22.4342 32.5545 20.1945 30.1782C21.277 28.9505 22.3222 27.5644 23.3674 26.0198C25.1218 25.8614 26.8016 25.5842 28.3694 25.1881C28.556 25.901 28.668 26.6139 28.78 27.3267C29.3026 30.6931 28.8919 33.1089 27.6228 33.8614ZM29.5639 12.9901C33.7446 14.2574 36.2456 16.198 36.2456 17.9802C36.2456 19.5248 34.5285 21.0693 31.5049 22.297C30.9077 22.5347 30.2358 22.7723 29.5639 22.9703C29.0786 21.3465 28.4813 19.6832 27.7348 17.9802C28.4813 16.2772 29.1159 14.6139 29.5639 12.9901ZM26.5776 1.82178C26.9882 1.82178 27.3242 1.90099 27.6601 2.09901C28.8919 2.85149 29.3399 5.22772 28.8173 8.63366C28.7053 9.30693 28.556 10.0198 28.4067 10.7723C26.8389 10.4158 25.1591 10.1386 23.4047 9.94059C22.3969 8.39604 21.3143 7.0099 20.2318 5.78218C22.4715 3.44554 24.7485 1.82178 26.5776 1.82178ZM21.0904 9.78218C20.4185 9.74257 19.7092 9.74257 19 9.74257C18.2908 9.74257 17.5815 9.74257 16.9096 9.78218C17.5815 8.83168 18.2908 7.9604 19 7.12871C19.7092 7.9604 20.4185 8.87129 21.0904 9.78218ZM10.3772 2.09901C10.6758 1.90099 11.0491 1.82178 11.4597 1.82178C13.2888 1.82178 15.5658 3.40594 17.8055 5.78218C16.723 7.0099 15.6778 8.39604 14.6326 9.94059C12.8782 10.099 11.1984 10.3762 9.63065 10.7723C9.44401 10.0594 9.33202 9.34653 9.22004 8.63366C8.69745 5.26733 9.10806 2.89109 10.3772 2.09901ZM8.43615 22.9703C4.2554 21.703 1.75442 19.7624 1.75442 17.9802C1.75442 16.4356 3.47151 14.8911 6.49509 13.6634C7.09234 13.4257 7.76424 13.1881 8.43615 12.9901C8.92141 14.6139 9.51866 16.2772 10.2652 17.9802C9.51866 19.6832 8.88409 21.3861 8.43615 22.9703ZM9.22004 27.3267C9.33202 26.6535 9.48134 25.9406 9.63065 25.1881C11.1984 25.5446 12.8782 25.8218 14.6326 26.0198C15.6405 27.5644 16.723 28.9505 17.8055 30.1782C15.5658 32.5149 13.2888 34.1386 11.4597 34.1386C11.0491 34.1386 10.7132 34.0594 10.3772 33.8614C9.10806 33.1089 8.69745 30.6931 9.22004 27.3267Z" fill="#61DAFB"/>
</svg>
