<svg width="40" height="40" viewBox="0 0 40 40" fill="none" xmlns="http://www.w3.org/2000/svg">
<path d="M27.7233 27.9151C29.1717 27.7833 30.2952 26.4388 30.2218 24.8324C30.1452 23.226 28.8967 21.9359 27.3749 21.9359H27.2733C25.7015 21.9904 24.4764 23.3842 24.5264 25.045C24.5764 25.8869 24.9031 26.5723 25.3498 27.0715C23.603 30.6534 20.9811 33.2862 17.0091 35.4989C14.3373 36.9717 11.5154 37.5271 8.76851 37.1317C6.47166 36.7907 4.67486 35.7081 3.57477 33.9716C1.92798 31.3371 1.77797 28.4951 3.14974 25.6514C4.15149 23.5968 5.64827 22.0959 6.64835 21.3577C6.39833 20.674 6.0983 19.5158 5.94829 18.6476C-1.44561 24.2313 -0.693888 31.8661 1.55295 35.4743C3.22641 38.1071 6.64834 39.7909 10.3936 39.7909C11.392 39.7909 12.4421 39.7135 13.4655 39.4499C19.9594 38.1335 24.8781 34.0261 27.7 27.9696L27.7233 27.9151ZM36.6373 21.3313C32.7687 16.5385 27.0733 13.9057 20.5794 13.9057H19.7294C19.3077 12.932 18.3342 12.3257 17.2342 12.3257H17.1592C15.5874 12.3257 14.3623 13.7493 14.4139 15.4067C14.4639 16.9849 15.7374 18.3031 17.2608 18.3031H17.3842C18.5093 18.2504 19.4827 17.5122 19.881 16.4594H20.8061C24.6547 16.4594 28.2983 17.644 31.6203 19.9605C34.1655 21.725 35.9906 24.0415 37.014 26.8079C37.9108 29.0716 37.8624 31.2843 36.939 33.1298C35.5156 36.0244 33.1171 37.5535 29.9468 37.5535C27.9483 37.5535 26.0015 36.8944 25.0014 36.4216C24.403 36.9454 23.403 37.8154 22.6779 38.3426C24.8748 39.3937 27.0983 40 29.2451 40C34.1155 40 37.7341 37.1053 39.1092 34.3126C40.606 31.1525 40.4826 25.8342 36.6607 21.2786L36.6373 21.3313ZM10.817 28.8607C10.8653 30.4407 12.1388 31.7571 13.6639 31.7571H13.7639C15.3624 31.7044 16.5858 30.3106 16.5108 28.6498C16.5108 27.0697 15.2123 25.7551 13.6889 25.7551H13.5872C13.4872 25.7551 13.3389 25.7551 13.2122 25.8061C11.1404 22.1187 10.2653 18.1678 10.592 13.9057C10.7903 10.6929 11.7904 7.90017 13.5872 5.58373C15.0857 3.60824 17.9075 2.6328 19.831 2.58184C25.2248 2.47463 27.4733 9.56105 27.6466 12.3784L30.1435 13.1675C29.5684 4.53096 24.4764 0 19.606 0C15.0357 0 10.817 3.50279 9.11687 8.63834C6.79502 15.4857 8.31847 22.0678 11.1654 27.3351C10.917 27.6778 10.767 28.2824 10.817 28.8607Z" fill="#7248B6"/>
</svg>
