<svg width="42" height="42" viewBox="0 0 42 42" fill="none" xmlns="http://www.w3.org/2000/svg">
<path d="M36.75 5.25H5.25V36.75H36.75V5.25Z" fill="#1976D2"/>
<path d="M25 19H14V21.72H17.9453V34H21.0713V21.72H25V19Z" fill="white"/>
<path d="M34.3444 22.4049C34.3444 22.4049 32.9278 21.409 31.3264 21.409C29.7251 21.409 29.1488 22.2111 29.1488 23.0683C29.1488 25.2806 35 25.0592 35 29.5114C35 36.3697 26.0785 33.3278 26.0785 33.3278V30.0377C26.0785 30.0377 27.7845 31.3929 29.8305 31.3929C31.8766 31.3929 31.7989 29.9826 31.7989 29.7888C31.7989 27.7427 26 27.7427 26 23.207C26 17.0404 34.449 19.4732 34.449 19.4732L34.3444 22.4049Z" fill="white"/>
</svg>
