<svg width="77" height="75" viewBox="0 0 77 75" fill="none" xmlns="http://www.w3.org/2000/svg">
<path d="M12.2413 30.3971C20.2011 26.2806 28.3169 20.8978 35.4336 15.3939C39.2417 12.4488 43.3399 9.92345 47.0251 6.87491C47.5445 6.44529 48.8234 4.41923 49.5947 5.08298C50.8121 6.13064 51.992 7.94997 52.7364 9.36577C54.8989 13.4785 57.8827 17.6058 60.9394 21.0694C63.3641 23.8168 65.3329 26.1371 67.1762 29.3298C68.1844 31.076 70.6879 33.459 70.5084 35.4004C70.0079 40.8128 64.9504 45.8258 61.4793 49.3669C56.3787 54.5703 51.3816 59.7995 45.3164 63.7988C41.5542 66.2796 37.3125 67.5896 33.4647 69.8111C29.9203 71.8575 30.2113 71.5829 26.8358 68.6092C23.5111 65.6803 21.4539 62.5022 19.1983 58.5955C18.0241 56.5617 15.9249 54.8055 14.292 53.1253C13.0552 51.8527 12.6058 49.68 11.9394 48.0785C11.2404 46.3989 11.3017 41.5822 9.76759 40.5789C8.26399 39.5954 6.51948 37.4336 6.94152 35.4971C7.28612 33.9159 20.4539 24.6472 9.45661 34.9939" stroke="#00ADB5" stroke-opacity="0.5" stroke-linecap="round" stroke-linejoin="round"/>
<path d="M4.96207 33.7647C7.9579 35.2195 10.8732 37.3087 13.8393 38.674C14.8251 39.1278 16.5074 39.0427 17.3025 39.6635C19.4552 41.3444 25.6722 40.3237 28.3123 40.5661C31.2925 40.8397 39.4596 44.9277 40.5547 39.903C42.6132 30.4576 44.917 21.0553 46.9672 11.6481C47.3546 9.87069 46.8314 8.11605 47.1851 6.49313C48.2618 1.55268 43.5217 4.67028 41.9189 5.59563" stroke="#00ADB5" stroke-opacity="0.5" stroke-linecap="round" stroke-linejoin="round"/>
</svg>
